<svg
    xmlns="http://www.w3.org/2000/svg"
    viewBox="0 0 744.48 599.21"
>
    <defs>
        <style>
            .cls-1{fill:#47515c;}
            .cls-2{fill:#616c7a;}
            .cls-3{fill:#e8ecf2;}
            .cls-4{fill:#d5dae3;}
            .cls-5{fill:#80bdff;}
            .cls-6,.cls-7{fill:none;stroke-miterlimit:10;stroke-width:4.46px;}
            .cls-6{stroke:#47515c;}
            .cls-7{stroke:#e8ecf2;}
            .cls-8{fill:#282623;}
            .cls-9{fill:#f0f4f7;}
            .cls-10{fill:#265ed4;}
        </style>
    </defs>
    <g id="Layer_2" data-name="Layer 2">
        <g id="_ÎÓÈ_1" data-name="—ÎÓÈ_1">
            <path class="cls-1" d="M357,497.37s-84.22,20-155.3,18.65S38.19,499.7,12,481.51,3,500.73,59.9,524.93s180.9,56.2,291.94,40.34S394.56,499,357,497.37Z"/>
            <path class="cls-2" d="M697.21,109.05s3.26,65.58,7.11,89.72,21,70.25,22,104.73-17.84,38.33-17.84,38.33c-11.17,100.11-77.65,244.53-236.9,245.55-82,1.4-108.57-2.33-131-2.33S315,572.46,317.34,568.72s72.21,0,73.65-30.31-76-41.51-86.71-47.57-8.86-21.45,14.93-21.45,84,6.53,124.05-17.26,88.62-86.75,99.34-108.2,13.06-25.65,13.06-25.65-21.56,2.33-20.34-27.52,36.19-52.23,47.39-82.55,5.16-67.39,5.16-67.39Z"/>
            <path class="cls-3" d="M691.54,110.71s-9.15,66-6.06,97.15c1.26,12.65,2.72,35.08,2.94,61.95,0,4.72-2.57,12.31-2.62,17.28-.06,6.4,2.4,10.24,2.17,16.94-1.09,31.35-4.25,65.28-11.21,95.4-16.16,70-79.12,125.92-150,134.78S461,475.92,499.23,436.74,591.93,325.82,604.81,261s-8-111.58-10.09-125.16C636.81,128,691.54,110.71,691.54,110.71Z"/>
            <path class="cls-4" d="M602.09,163.64a119.9,119.9,0,0,0,50.34,4.47C680.65,164.61,687.5,146,687.5,146l2.59-23.91-92.62,24.5Z"/>
            <path class="cls-5" d="M339,575.13s2.58-10-21.91-9.86c-18,.11-49.89,7.11-57.16,12s.35,5.25,5.94,3.7,24.5-5.52,24-4.93-24,6.07-27.39,7.24-5.45,4,2.67,4.76,24.87-2.75,26.52-2.8-8.95,2.62-16.84,3.52-10.63,1.08-10.55,2.4,7,2.41,12.74,2.86,16.75-2.18,16.39-1.42-12.29,2.46-17,2.3-12-.85-7.45,2.16,16.3,2.64,29.18.46S340.85,590.54,339,575.13Z"/>
            <path class="cls-5" d="M330.12,480.58s5.76,8.57-17.38,16.59c-17,5.88-49.42,9.9-57.89,7.73s-1.42-5.07,4.37-5.47,24.94-2.94,24.3-3.34-24.62,2.25-28.25,2.29-6.47-2,.94-5.38,24.37-5.68,25.94-6.19-9.31.51-17,2.29-10.39,2.51-10.75,1.25,5.76-4.59,11.06-6.94,16.52-3.52,15.93-4.11-12.41,1.77-16.81,3.49-11,4.79-7.74.44,14.49-7.92,27.36-10.14S326.73,465.44,330.12,480.58Z"/>
            <path class="cls-6" d="M599.9,221.33s-20.4-6.38-48.63,36.19"/>
            <path class="cls-6" d="M555.7,316.69s23.19-.33,42.39-47.66"/>
            <path class="cls-5" d="M690.74,231.39s-8.66-7.45-20.56,15c-8.73,16.44-17.47,49.12-16.22,58.23s5.38,2.36,6.59-3.53,6.56-25.16,6.92-24.42-5.76,24.94-6.28,28.67,1.29,7,6,0,9.5-24.08,10.27-25.61-1.8,9.5-4.79,17.15-4.15,10.25-2.81,10.84,5.82-5.12,9.1-10.15,6.08-16.39,6.65-15.68-3.6,12.46-6.08,16.69S672.82,309,678,306.41s10.64-13.52,14.8-26.38S706.93,237.55,690.74,231.39Z"/>
            <path class="cls-5" d="M605.36,218.64s10.68-4,14.19,21.1c2.59,18.43-.39,52.14-4.68,60.26s-5.87.38-5-5.57,2.45-25.89,1.86-25.32-3.13,25.41-3.91,29.09-3.61,6.14-5.66-2.07-.69-25.89-.88-27.59-1.57,9.54-1.37,17.76.39,11.05-1.07,11.15-3.72-6.8-5.08-12.66-.1-17.47-.88-17-.88,12.94,0,17.76,2.73,12.18-1.27,7.93-5.38-16.34-4.89-29.85S588,218.89,605.36,218.64Z"/>
            <path class="cls-2" d="M733.15,48.43s19.27-21.34,7.55-38-21.84-9.36-28.29-5.24-11.32,5.69-15.6,5.74C704.68,19,733.15,48.43,733.15,48.43Z"/>
            <path class="cls-5" d="M716.77,13.9a21.49,21.49,0,0,1,5.11,3.6,43.66,43.66,0,0,1,7.06,8.5c3.12,5.39,5.71,9.17,9,5s5-14.62-3.2-21.71S722.8,4.52,717.14,7.42C712.42,9.84,713.5,12.2,716.77,13.9Z"/>
            <path class="cls-2" d="M715.63,16.76c-8.79-5.18-34.1-10.2-59.5-6.34a225.38,225.38,0,0,0-43.06,10.69,225.8,225.8,0,0,0-39.05,21c-21.4,14.22-36.76,35-39.78,44.7s-2.91,33.45,24.61,47.91c34.81,7,75.45-37.62,77.07-51.8,10.74,9.41,72.65,14.39,93.71-14.19C740.28,39.56,724.41,21.93,715.63,16.76Z"/>
            <path class="cls-7" d="M688.19,32s-21-4.1-29.5,11.19"/>
            <path class="cls-8" d="M655.29,119s8.8,3.94,15.63,1.62,9-9.88,9-9.88-.82,7.63-8.08,10.61-16.21-1.25-17.61-1.89C653.16,118.32,655.29,119,655.29,119Z"/>
            <path class="cls-8" d="M645.4,124.34s-3.69,7.45-10.4,10-12.54-1.27-12.54-1.27,5.74,4.9,12.78,2.16,10.4-9.91,10.4-9.91Z"/>
            <path class="cls-5" d="M659,81.83c-3.82,1.81-5.86,8.07-6.94,15-14.67-.8-28.06-1.1-32.1.12-22,28.14-40.28,35.09-61.08,37.85,21.46,19.93,57.44,18.41,74.26,21.45a55.36,55.36,0,0,0,30.77-3.63,55.36,55.36,0,0,0,25.21-18C699.49,121,727.15,98,729.63,68.77,712.38,80.72,694.16,87.88,659,81.83Z"/>
            <path class="cls-2" d="M542.57,122.07S514,119.24,511.43,99s9.87-21.62,17.41-22.91,12.21-3.4,15.41-6.24C543.85,81.15,542.57,122.07,542.57,122.07Z"/>
            <path class="cls-5" d="M531.47,85.5a21.78,21.78,0,0,0-1.36,6.1,43.81,43.81,0,0,0,.5,11c1.31,6.09,1.93,10.62-3.32,9.71s-13.53-7.46-12.22-18.22S520.7,82.62,526.84,81C532,79.57,532.75,82,531.47,85.5Z"/>
            <ellipse class="cls-3" cx="683.69" cy="59.61" rx="11.83" ry="14.83" transform="translate(0.05 119.78) rotate(-10.01)"/>
            <ellipse class="cls-3" cx="584.57" cy="92.67" rx="11.83" ry="14.83" transform="translate(12.8 245.62) rotate(-23.98)"/>
            <ellipse class="cls-1" cx="584.57" cy="92.67" rx="9.27" ry="11.63" transform="translate(12.8 245.62) rotate(-23.98)"/>
            <ellipse class="cls-1" cx="683.78" cy="60.14" rx="9.27" ry="11.63" transform="matrix(0.97, -0.26, 0.26, 0.97, 7.79, 179.33)"/>
            <path class="cls-6" d="M639.23,145.45s23.27,4.53,32.62-12.37"/>
            <path class="cls-7" d="M589.21,64.39s-21.27-2.65-28.66,13.18"/>
            <path class="cls-9" d="M638.75,135s-10.28,10.44-22.37-1.44c-13.38-13.14.9-35.53.9-35.53l25.22,7.13L648,115.71S643.33,131.72,638.75,135Z"/>
            <path class="cls-9" d="M661.73,126.66s18.24-1.09,19.2-18C682,89.92,656.38,83,656.38,83L642.5,105.19,648,116.4S656.12,127.29,661.73,126.66Z"/>
            <path class="cls-6" d="M642.43,98.27s5.5,45.52,36.85,21.29"/>
            <path class="cls-6" d="M642.44,101.32S657.8,142.75,623,137.67"/>
            <path class="cls-10" d="M658.49,82.42c-1.13-5.73-15.62-3.65-24.28-.3s-20.77,11.55-17.76,16.54,6.91,3.69,11,3.6,7.62,3.62,10.57,3.9a16.57,16.57,0,0,0,5.34-.37,16.57,16.57,0,0,0,4.2-3.32c2-2.19,2.11-7.31,5.21-10S659.62,88.14,658.49,82.42Z"/>
        </g>
    </g>
</svg>
